<svg width="124" height="90" viewBox="0 0 124 90" fill="none" xmlns="http://www.w3.org/2000/svg">
<path d="M1.28629 10.7646C1.12818 7.45468 3.68323 4.64326 6.99317 4.48515L84.9043 0.763434C93.7308 0.341804 101.228 7.15529 101.65 15.9818L104.381 73.153C104.697 79.7729 99.5866 85.3957 92.9668 85.7119L17.0533 89.3382C10.4335 89.6545 4.81065 84.5443 4.49443 77.9245L1.28629 10.7646Z" fill="#F4F4F5"/>
<g filter="url(#filter0_dd_1203_23263)">
<path d="M2.33618 32.7396C1.91455 23.9131 8.72804 16.416 17.5545 15.9943L112.451 11.4612C115.761 11.3031 118.572 13.8582 118.731 17.1681L121.652 78.3348C121.81 81.6448 119.255 84.4562 115.945 84.6143L11.0604 89.6245C7.75042 89.7826 4.93901 87.2276 4.7809 83.9176L2.33618 32.7396Z" fill="white"/>
<path d="M2.83561 32.7157C2.42716 24.165 9.02773 16.9022 17.5784 16.4938L112.475 11.9607C115.509 11.8157 118.086 14.1579 118.231 17.192L121.153 78.3587C121.298 81.3928 118.956 83.9699 115.922 84.1149L11.0365 89.1251C8.00239 89.27 5.42526 86.9279 5.28033 83.8938L2.83561 32.7157Z" stroke="#18181B" stroke-opacity="0.1"/>
<path d="M71.2732 43.4027L71.3156 43.1784C71.5179 42.1387 71.772 41.3292 72.078 40.7497C72.3897 40.1714 72.7591 39.729 73.1862 39.4226C73.6144 39.1104 74.1142 38.8445 74.6857 38.6249C75.0777 38.4726 75.4362 38.2932 75.7611 38.0866C76.0928 37.8753 76.3696 37.6238 76.5914 37.3322C76.8143 37.0349 76.9637 36.6849 77.0398 36.2824C77.1256 35.8282 77.0936 35.4142 76.9438 35.0405C76.794 34.6668 76.5554 34.3538 76.2279 34.1013C75.9061 33.85 75.5239 33.6825 75.0811 33.5989C74.6728 33.5218 74.2679 33.5376 73.8662 33.6464C73.4714 33.7504 73.1195 33.9579 72.8107 34.2688C72.5087 34.5751 72.2923 34.9957 72.1614 35.5308L69.0908 34.9509C69.3259 33.8638 69.7631 32.9995 70.4024 32.3579C71.0474 31.7175 71.8187 31.2914 72.7162 31.0798C73.6195 30.8693 74.5743 30.859 75.5805 31.0491C76.6788 31.2565 77.6085 31.6316 78.3695 32.1743C79.1362 32.7181 79.6852 33.3905 80.0163 34.1915C80.3542 34.9878 80.4314 35.8719 80.2479 36.8437C80.1241 37.4992 79.9069 38.0656 79.5964 38.5429C79.2917 39.0214 78.9087 39.4254 78.4474 39.7552C77.9861 40.0849 77.4611 40.358 76.8723 40.5743C76.3523 40.7739 75.9134 41.0007 75.5558 41.2547C75.2039 41.5098 74.9164 41.8337 74.6934 42.2263C74.4772 42.6143 74.3086 43.1125 74.1878 43.7209L74.1454 43.9451L71.2732 43.4027ZM71.7575 49.0683C71.24 48.9705 70.8291 48.7024 70.5249 48.2638C70.2206 47.8252 70.1184 47.3414 70.2183 46.8123C70.3161 46.2948 70.5866 45.8874 71.0298 45.5899C71.4731 45.2925 71.9535 45.1927 72.471 45.2904C72.9828 45.3871 73.3908 45.6547 73.695 46.0933C74.0051 46.533 74.1112 47.0116 74.0134 47.5291C73.9472 47.8799 73.7978 48.1822 73.5652 48.436C73.3384 48.6909 73.065 48.8775 72.7449 48.9957C72.4317 49.1093 72.1025 49.1334 71.7575 49.0683Z" fill="#18181B" fill-opacity="0.18"/>
<path d="M53.6288 60.644L53.5343 60.2589C53.1051 58.4691 52.9237 57.0059 52.9901 55.8692C53.0663 54.7301 53.3317 53.7645 53.7863 52.9722C54.2384 52.1701 54.8373 51.3895 55.5827 50.6306C56.0929 50.1074 56.5304 49.5654 56.8953 49.0046C57.2676 48.4315 57.5241 47.8345 57.6647 47.2136C57.803 46.5828 57.7872 45.9218 57.6174 45.2305C57.4258 44.4504 57.077 43.8188 56.5709 43.3358C56.0649 42.8528 55.462 42.5297 54.7623 42.3666C54.0724 42.2009 53.3473 42.2115 52.5869 42.3983C51.8858 42.5705 51.2569 42.8873 50.7 43.3486C50.1507 43.7977 49.7438 44.3792 49.4795 45.0934C49.2226 45.7952 49.1834 46.6163 49.362 47.5566L44.0888 48.8518C43.6774 46.9635 43.746 45.2818 44.2946 43.8068C44.8531 42.3294 45.7658 41.1 47.0325 40.1188C48.3092 39.1351 49.8115 38.431 51.5396 38.0065C53.4257 37.5433 55.166 37.4666 56.7604 37.7765C58.3646 38.084 59.717 38.7518 60.8177 39.7798C61.9257 40.7955 62.6847 42.1378 63.0946 43.8067C63.3711 44.9324 63.4359 45.9845 63.2888 46.963C63.1516 47.9391 62.8371 48.854 62.3452 49.7077C61.8534 50.5615 61.2199 51.3715 60.4448 52.1378C59.7662 52.828 59.2357 53.5028 58.8532 54.1621C58.4805 54.8191 58.2593 55.5383 58.1895 56.3198C58.1271 57.089 58.2195 57.9982 58.4668 59.0473L58.5614 59.4325L53.6288 60.644ZM58.4764 69.2539C57.5877 69.4721 56.7448 69.3441 55.9477 68.8698C55.1506 68.3955 54.6405 67.704 54.4173 66.7955C54.199 65.9068 54.3332 65.0676 54.8198 64.278C55.3065 63.4883 55.9942 62.9843 56.8829 62.766C57.7618 62.5502 58.5998 62.6794 59.3968 63.1538C60.2038 63.6257 60.7165 64.306 60.9348 65.1947C61.0827 65.7971 61.0643 66.3828 60.8794 66.9517C60.7044 67.5182 60.4065 68.0102 59.9855 68.4277C59.5719 68.833 59.0689 69.1083 58.4764 69.2539Z" fill="#18181B" fill-opacity="0.18"/>
</g>
<defs>
<filter id="filter0_dd_1203_23263" x="-0.427246" y="5.17496" width="124.366" height="84.7358" filterUnits="userSpaceOnUse" color-interpolation-filters="sRGB">
<feFlood flood-opacity="0" result="BackgroundImageFix"/>
<feColorMatrix in="SourceAlpha" type="matrix" values="0 0 0 0 0 0 0 0 0 0 0 0 0 0 0 0 0 0 127 0" result="hardAlpha"/>
<feMorphology radius="2" operator="erode" in="SourceAlpha" result="effect1_dropShadow_1203_23263"/>
<feOffset dy="-4"/>
<feGaussianBlur stdDeviation="2"/>
<feColorMatrix type="matrix" values="0 0 0 0 0.0896 0 0 0 0 0.15104 0 0 0 0 0.32 0 0 0 0.02 0"/>
<feBlend mode="normal" in2="BackgroundImageFix" result="effect1_dropShadow_1203_23263"/>
<feColorMatrix in="SourceAlpha" type="matrix" values="0 0 0 0 0 0 0 0 0 0 0 0 0 0 0 0 0 0 127 0" result="hardAlpha"/>
<feMorphology radius="2" operator="erode" in="SourceAlpha" result="effect2_dropShadow_1203_23263"/>
<feOffset dy="-2"/>
<feGaussianBlur stdDeviation="2"/>
<feColorMatrix type="matrix" values="0 0 0 0 0.0235294 0 0 0 0 0.0509804 0 0 0 0 0.121569 0 0 0 0.04 0"/>
<feBlend mode="normal" in2="effect1_dropShadow_1203_23263" result="effect2_dropShadow_1203_23263"/>
<feBlend mode="normal" in="SourceGraphic" in2="effect2_dropShadow_1203_23263" result="shape"/>
</filter>
</defs>
</svg>
