<svg width="375" height="658" viewBox="0 0 375 658" fill="none" xmlns="http://www.w3.org/2000/svg">
<path d="M155.137 328.927C155.991 329.127 156.652 329.541 157.119 330.168C157.599 330.782 157.84 331.496 157.84 332.31C157.84 333.551 157.426 334.512 156.599 335.192C155.785 335.859 154.61 336.193 153.076 336.193H145.65V322.022H152.876C154.317 322.022 155.451 322.335 156.278 322.963C157.106 323.59 157.519 324.504 157.519 325.705C157.519 326.532 157.299 327.233 156.859 327.806C156.432 328.367 155.858 328.74 155.137 328.927ZM150.093 327.546H151.815C152.215 327.546 152.509 327.466 152.696 327.306C152.896 327.146 152.996 326.899 152.996 326.565C152.996 326.218 152.896 325.965 152.696 325.805C152.509 325.631 152.215 325.545 151.815 325.545H150.093V327.546ZM152.115 332.63C152.515 332.63 152.809 332.557 152.996 332.41C153.196 332.25 153.296 331.996 153.296 331.649C153.296 330.969 152.902 330.629 152.115 330.629H150.093V332.63H152.115Z" fill="white"/>
<path d="M164.577 332.83H168.86V336.193H160.133V322.022H164.577V332.83Z" fill="white"/>
<path d="M177.965 336.333C176.63 336.333 175.403 336.02 174.282 335.392C173.174 334.765 172.294 333.898 171.64 332.79C170.986 331.683 170.659 330.435 170.659 329.047C170.659 327.66 170.986 326.412 171.64 325.304C172.294 324.197 173.174 323.336 174.282 322.722C175.403 322.095 176.63 321.782 177.965 321.782C179.299 321.782 180.52 322.095 181.628 322.722C182.735 323.336 183.609 324.197 184.25 325.304C184.904 326.412 185.23 327.66 185.23 329.047C185.23 330.435 184.904 331.683 184.25 332.79C183.609 333.898 182.728 334.765 181.608 335.392C180.5 336.02 179.286 336.333 177.965 336.333ZM177.965 332.19C178.845 332.19 179.526 331.91 180.006 331.349C180.487 330.775 180.727 330.008 180.727 329.047C180.727 328.073 180.487 327.306 180.006 326.746C179.526 326.172 178.845 325.885 177.965 325.885C177.071 325.885 176.383 326.172 175.903 326.746C175.423 327.306 175.182 328.073 175.182 329.047C175.182 330.008 175.423 330.775 175.903 331.349C176.383 331.91 177.071 332.19 177.965 332.19Z" fill="white"/>
<path d="M187.234 329.087C187.234 327.686 187.514 326.439 188.074 325.344C188.648 324.25 189.462 323.403 190.516 322.802C191.571 322.189 192.812 321.882 194.239 321.882C195.467 321.882 196.561 322.115 197.522 322.582C198.496 323.036 199.283 323.683 199.884 324.524C200.498 325.364 200.905 326.345 201.105 327.466H196.421C196.208 326.999 195.901 326.639 195.5 326.385C195.113 326.118 194.666 325.985 194.159 325.985C193.412 325.985 192.818 326.265 192.378 326.826C191.951 327.386 191.737 328.14 191.737 329.087C191.737 330.035 191.951 330.789 192.378 331.349C192.818 331.91 193.412 332.19 194.159 332.19C194.666 332.19 195.113 332.063 195.5 331.81C195.901 331.543 196.208 331.176 196.421 330.709H201.105C200.905 331.83 200.498 332.81 199.884 333.651C199.283 334.492 198.496 335.146 197.522 335.613C196.561 336.066 195.467 336.293 194.239 336.293C192.812 336.293 191.571 335.993 190.516 335.392C189.462 334.779 188.648 333.925 188.074 332.83C187.514 331.736 187.234 330.489 187.234 329.087Z" fill="white"/>
<path d="M212.072 336.193L207.949 330.048V336.193H203.505V322.022H207.949V327.987L212.012 322.022H217.036L212.152 328.807L217.356 336.193H212.072Z" fill="white"/>
<path d="M228.903 328.927C229.757 329.127 230.418 329.541 230.885 330.168C231.365 330.782 231.605 331.496 231.605 332.31C231.605 333.551 231.192 334.512 230.364 335.192C229.55 335.859 228.376 336.193 226.842 336.193H219.416V322.022H226.641C228.083 322.022 229.217 322.335 230.044 322.963C230.871 323.59 231.285 324.504 231.285 325.705C231.285 326.532 231.065 327.233 230.625 327.806C230.198 328.367 229.624 328.74 228.903 328.927ZM223.859 327.546H225.581C225.981 327.546 226.274 327.466 226.461 327.306C226.661 327.146 226.762 326.899 226.762 326.565C226.762 326.218 226.661 325.965 226.461 325.805C226.274 325.631 225.981 325.545 225.581 325.545H223.859V327.546ZM225.881 332.63C226.281 332.63 226.575 332.557 226.762 332.41C226.962 332.25 227.062 331.996 227.062 331.649C227.062 330.969 226.668 330.629 225.881 330.629H223.859V332.63H225.881Z" fill="white"/>
<path d="M241.025 336.193L238.363 331.109H238.343V336.193H233.899V322.022H240.504C241.652 322.022 242.633 322.229 243.447 322.642C244.261 323.043 244.868 323.596 245.268 324.304C245.682 324.998 245.889 325.785 245.889 326.666C245.889 327.613 245.622 328.454 245.088 329.188C244.568 329.921 243.814 330.449 242.826 330.769L245.909 336.193H241.025ZM238.343 328.147H240.104C240.531 328.147 240.851 328.053 241.065 327.866C241.278 327.666 241.385 327.359 241.385 326.946C241.385 326.572 241.272 326.279 241.045 326.065C240.831 325.852 240.518 325.745 240.104 325.745H238.343V328.147Z" fill="white"/>
<path d="M257.196 334.051H252.472L251.772 336.193H247.108L252.292 322.022H257.416L262.58 336.193H257.897L257.196 334.051ZM256.115 330.709L254.834 326.766L253.553 330.709H256.115Z" fill="white"/>
<path d="M268.834 322.022V336.193H264.391V322.022H268.834Z" fill="white"/>
<path d="M285.232 336.193H280.789L276.085 329.067V336.193H271.642V322.022H276.085L280.789 329.268V322.022H285.232V336.193Z" fill="white"/>
<rect x="89.6053" y="305" width="48" height="48" rx="24" fill="white"/>
<g clip-path="url(#clip0_1423_6127)">
<path d="M105.198 325.049H101.903C101.748 325.049 101.623 325.175 101.623 325.329V328.636C101.623 328.791 101.748 328.916 101.903 328.916H105.198C105.352 328.916 105.477 328.791 105.477 328.636V325.329C105.477 325.175 105.352 325.049 105.198 325.049Z" fill="#041410"/>
<path d="M109.214 329.084H105.919C105.764 329.084 105.639 329.209 105.639 329.364V332.67C105.639 332.825 105.764 332.951 105.919 332.951H109.214C109.368 332.951 109.493 332.825 109.493 332.67V329.364C109.493 329.209 109.368 329.084 109.214 329.084Z" fill="#041410"/>
<path d="M113.237 329.084H109.941C109.787 329.084 109.662 329.209 109.662 329.364V332.67C109.662 332.825 109.787 332.951 109.941 332.951H113.237C113.391 332.951 113.516 332.825 113.516 332.67V329.364C113.516 329.209 113.391 329.084 113.237 329.084Z" fill="#041410"/>
<path d="M113.236 321.015H105.919C105.764 321.015 105.639 321.14 105.639 321.295V328.636C105.639 328.791 105.764 328.916 105.919 328.916H113.236C113.39 328.916 113.515 328.791 113.515 328.636V321.295C113.515 321.14 113.39 321.015 113.236 321.015Z" fill="#041410"/>
<path d="M113.232 333.12H111.948C111.793 333.12 111.668 333.245 111.668 333.4V334.689C111.668 334.843 111.793 334.969 111.948 334.969H113.232C113.387 334.969 113.512 334.843 113.512 334.689V333.4C113.512 333.245 113.387 333.12 113.232 333.12Z" fill="#041410"/>
<path d="M111.226 333.12H109.941C109.787 333.12 109.662 333.245 109.662 333.4V334.689C109.662 334.843 109.787 334.969 109.941 334.969H111.226C111.38 334.969 111.505 334.843 111.505 334.689V333.4C111.505 333.245 111.38 333.12 111.226 333.12Z" fill="#041410"/>
<path d="M105.194 323.032H103.909C103.755 323.032 103.63 323.158 103.63 323.312V324.601C103.63 324.756 103.755 324.881 103.909 324.881H105.194C105.348 324.881 105.473 324.756 105.473 324.601V323.312C105.473 323.158 105.348 323.032 105.194 323.032Z" fill="#041410"/>
<path d="M105.194 329.084H103.909C103.755 329.084 103.63 329.209 103.63 329.364V330.653C103.63 330.808 103.755 330.933 103.909 330.933H105.194C105.348 330.933 105.473 330.808 105.473 330.653V329.364C105.473 329.209 105.348 329.084 105.194 329.084Z" fill="#041410"/>
<path d="M103.187 329.084H101.903C101.748 329.084 101.623 329.209 101.623 329.364V330.653C101.623 330.808 101.748 330.933 101.903 330.933H103.187C103.341 330.933 103.467 330.808 103.467 330.653V329.364C103.467 329.209 103.341 329.084 103.187 329.084Z" fill="#041410"/>
<path d="M105.194 331.102H103.909C103.755 331.102 103.63 331.228 103.63 331.383V332.672C103.63 332.826 103.755 332.952 103.909 332.952H105.194C105.348 332.952 105.473 332.826 105.473 332.672V331.383C105.473 331.228 105.348 331.102 105.194 331.102Z" fill="#041410"/>
<path d="M117.252 321.015H113.957C113.803 321.015 113.678 321.14 113.678 321.295V324.601C113.678 324.756 113.803 324.881 113.957 324.881H117.252C117.407 324.881 117.532 324.756 117.532 324.601V321.295C117.532 321.14 117.407 321.015 117.252 321.015Z" fill="#041410"/>
<path d="M121.274 321.015H117.979C117.825 321.015 117.7 321.14 117.7 321.295V324.601C117.7 324.756 117.825 324.881 117.979 324.881H121.274C121.429 324.881 121.554 324.756 121.554 324.601V321.295C121.554 321.14 121.429 321.015 121.274 321.015Z" fill="#041410"/>
<path d="M121.274 325.049H113.957C113.803 325.049 113.678 325.175 113.678 325.329V332.671C113.678 332.825 113.803 332.951 113.957 332.951H121.274C121.428 332.951 121.553 332.825 121.553 332.671V325.329C121.553 325.175 121.428 325.049 121.274 325.049Z" fill="#041410"/>
<path d="M117.267 333.12H115.982C115.828 333.12 115.703 333.245 115.703 333.4V334.689C115.703 334.843 115.828 334.969 115.982 334.969H117.267C117.421 334.969 117.546 334.843 117.546 334.689V333.4C117.546 333.245 117.421 333.12 117.267 333.12Z" fill="#041410"/>
<path d="M115.242 333.12H113.957C113.803 333.12 113.678 333.245 113.678 333.4V334.689C113.678 334.843 113.803 334.969 113.957 334.969H115.242C115.396 334.969 115.521 334.843 115.521 334.689V333.4C115.521 333.245 115.396 333.12 115.242 333.12Z" fill="#041410"/>
<path d="M117.267 335.137H115.982C115.828 335.137 115.703 335.262 115.703 335.417V336.706C115.703 336.86 115.828 336.986 115.982 336.986H117.267C117.421 336.986 117.546 336.86 117.546 336.706V335.417C117.546 335.262 117.421 335.137 117.267 335.137Z" fill="#041410"/>
<path d="M113.232 318.997H111.948C111.793 318.997 111.668 319.122 111.668 319.277V320.566C111.668 320.721 111.793 320.846 111.948 320.846H113.232C113.387 320.846 113.512 320.721 113.512 320.566V319.277C113.512 319.122 113.387 318.997 113.232 318.997Z" fill="#041410"/>
<path d="M111.226 318.997H109.941C109.787 318.997 109.662 319.122 109.662 319.277V320.566C109.662 320.721 109.787 320.846 109.941 320.846H111.226C111.38 320.846 111.505 320.721 111.505 320.566V319.277C111.505 319.122 111.38 318.997 111.226 318.997Z" fill="#041410"/>
<path d="M117.267 318.997H115.982C115.828 318.997 115.703 319.122 115.703 319.277V320.566C115.703 320.721 115.828 320.846 115.982 320.846H117.267C117.421 320.846 117.546 320.721 117.546 320.566V319.277C117.546 319.122 117.421 318.997 117.267 318.997Z" fill="#041410"/>
<path d="M115.242 318.997H113.957C113.803 318.997 113.678 319.122 113.678 319.277V320.566C113.678 320.721 113.803 320.846 113.957 320.846H115.242C115.396 320.846 115.521 320.721 115.521 320.566V319.277C115.521 319.122 115.396 318.997 115.242 318.997Z" fill="#041410"/>
<path d="M123.295 323.032H122.01C121.856 323.032 121.731 323.158 121.731 323.312V324.601C121.731 324.756 121.856 324.881 122.01 324.881H123.295C123.449 324.881 123.574 324.756 123.574 324.601V323.312C123.574 323.158 123.449 323.032 123.295 323.032Z" fill="#041410"/>
<path d="M125.306 325.049H122.01C121.856 325.049 121.731 325.175 121.731 325.329V328.636C121.731 328.791 121.856 328.916 122.01 328.916H125.306C125.46 328.916 125.585 328.791 125.585 328.636V325.329C125.585 325.175 125.46 325.049 125.306 325.049Z" fill="#041410"/>
<path d="M125.306 329.084H122.01C121.856 329.084 121.731 329.209 121.731 329.364V332.67C121.731 332.825 121.856 332.951 122.01 332.951H125.306C125.46 332.951 125.585 332.825 125.585 332.67V329.364C125.585 329.209 125.46 329.084 125.306 329.084Z" fill="#041410"/>
<path d="M121.274 333.12H117.979C117.825 333.12 117.7 333.245 117.7 333.4V336.706C117.7 336.861 117.825 336.986 117.979 336.986H121.274C121.429 336.986 121.554 336.861 121.554 336.706V333.4C121.554 333.245 121.429 333.12 121.274 333.12Z" fill="#041410"/>
<path d="M123.295 333.12H122.01C121.856 333.12 121.731 333.245 121.731 333.4V334.689C121.731 334.843 121.856 334.969 122.01 334.969H123.295C123.449 334.969 123.574 334.843 123.574 334.689V333.4C123.574 333.245 123.449 333.12 123.295 333.12Z" fill="#041410"/>
<path d="M119.264 337.154H117.979C117.825 337.154 117.7 337.279 117.7 337.434V338.723C117.7 338.878 117.825 339.003 117.979 339.003H119.264C119.418 339.003 119.543 338.878 119.543 338.723V337.434C119.543 337.279 119.418 337.154 119.264 337.154Z" fill="#041410"/>
</g>
<defs>
<clipPath id="clip0_1423_6127">
<rect width="23.962" height="20.0063" fill="white" transform="translate(101.624 318.997)"/>
</clipPath>
</defs>
</svg>
