<svg width="24" height="24" viewBox="0 0 24 24" fill="none" xmlns="http://www.w3.org/2000/svg">
<path d="M21 12.0001C21.0002 14.3663 20.0686 16.6373 18.4069 18.3217C16.7451 20.0061 14.4869 20.9683 12.1209 21.0001H12C9.70149 21.0059 7.48903 20.1263 5.82189 18.5439C5.7503 18.4762 5.69274 18.395 5.65251 18.3051C5.61229 18.2151 5.59017 18.1181 5.58743 18.0196C5.58468 17.9211 5.60137 17.823 5.63653 17.731C5.67169 17.6389 5.72464 17.5547 5.79236 17.4831C5.86007 17.4115 5.94122 17.354 6.03117 17.3137C6.12113 17.2735 6.21813 17.2514 6.31663 17.2486C6.41513 17.2459 6.51321 17.2626 6.60527 17.2977C6.69732 17.3329 6.78155 17.3859 6.85314 17.4536C7.92545 18.4648 9.27197 19.1377 10.7245 19.3882C12.177 19.6386 13.6711 19.4555 15.0202 18.8618C16.3692 18.268 17.5134 17.2899 18.3098 16.0496C19.1062 14.8094 19.5195 13.3619 19.4981 11.8881C19.4766 10.4144 19.0214 8.97955 18.1893 7.76297C17.3571 6.5464 16.1849 5.60199 14.8192 5.04773C13.4534 4.49346 11.9546 4.35392 10.51 4.64652C9.06538 4.93912 7.73901 5.65091 6.69658 6.69295C6.68892 6.70123 6.68078 6.70906 6.6722 6.71638L5.68408 7.62107L7.27782 9.21482C7.38428 9.31929 7.45718 9.45312 7.48719 9.59923C7.5172 9.74533 7.50297 9.89707 7.44631 10.035C7.38965 10.173 7.29314 10.291 7.16911 10.3738C7.04508 10.4567 6.89917 10.5006 6.75001 10.5001H2.25001C2.0511 10.5001 1.86033 10.4211 1.71968 10.2805C1.57903 10.1398 1.50001 9.94905 1.50001 9.75013V5.25013C1.49915 5.10139 1.54253 4.95575 1.62465 4.83173C1.70677 4.70771 1.82391 4.6109 1.96118 4.55362C2.09845 4.49634 2.24966 4.48117 2.39557 4.51004C2.54149 4.53891 2.67552 4.61052 2.78064 4.71576L4.62283 6.56263L5.64845 5.62513C6.90843 4.37005 8.51201 3.51638 10.2568 3.17191C12.0015 2.82744 13.8092 3.0076 15.4516 3.68965C17.0941 4.3717 18.4976 5.52507 19.4851 7.00415C20.4726 8.48322 20.9997 10.2217 21 12.0001Z" fill="currentColor"/>
</svg>
