<svg width="48" height="48" viewBox="0 0 48 48" fill="none" xmlns="http://www.w3.org/2000/svg">
<path d="M0 24C0 10.7452 10.7452 0 24 0C37.2548 0 48 10.7452 48 24C48 37.2548 37.2548 48 24 48C10.7452 48 0 37.2548 0 24Z" fill="#427BBF"/>
<path d="M33.7499 23.9895C33.7506 24.2567 33.6798 24.5193 33.545 24.7501C33.4102 24.9808 33.2162 25.1714 32.983 25.302L17.2414 34.3029C17.0153 34.4312 16.7599 34.499 16.4999 34.4998C16.2601 34.4993 16.0239 34.4413 15.8112 34.3308C15.5984 34.2202 15.4153 34.0602 15.2771 33.8643C15.1389 33.6684 15.0497 33.4421 15.017 33.2046C14.9842 32.9671 15.0089 32.7252 15.0889 32.4992L17.653 25.0039C17.6783 24.9297 17.7261 24.8653 17.7898 24.8198C17.8536 24.7742 17.93 24.7497 18.0083 24.7498H24.7499C24.8527 24.75 24.9545 24.7291 25.0488 24.6883C25.1432 24.6476 25.2282 24.5879 25.2986 24.5129C25.3689 24.4379 25.4231 24.3492 25.4577 24.2524C25.4923 24.1556 25.5067 24.0527 25.4999 23.9501C25.4829 23.7572 25.3936 23.5779 25.25 23.4481C25.1064 23.3182 24.9191 23.2474 24.7255 23.2498H18.0149C17.9366 23.2499 17.8603 23.2256 17.7966 23.1802C17.7329 23.1348 17.685 23.0706 17.6596 22.9967L15.0871 15.4967C14.9869 15.2093 14.9765 14.8982 15.0573 14.6048C15.1381 14.3113 15.3062 14.0494 15.5394 13.8538C15.7725 13.6582 16.0597 13.5381 16.3627 13.5096C16.6657 13.481 16.9702 13.5453 17.2358 13.6939L32.9858 22.6835C33.2175 22.814 33.4103 23.0036 33.5446 23.2331C33.6788 23.4626 33.7497 23.7236 33.7499 23.9895Z" fill="white"/>
</svg>
