<svg width="32" height="32" viewBox="0 0 32 32" fill="none" xmlns="http://www.w3.org/2000/svg">
<rect width="32" height="32" rx="6" fill="#1D5DA9"/>
<path d="M10.05 13.2V18.8C10.05 19.0785 9.93933 19.3456 9.74241 19.5425C9.5455 19.7394 9.27843 19.85 8.99995 19.85C8.72147 19.85 8.4544 19.7394 8.25749 19.5425C8.06058 19.3456 7.94995 19.0785 7.94995 18.8V13.2C7.94995 12.9216 8.06058 12.6545 8.25749 12.4576C8.4544 12.2607 8.72147 12.15 8.99995 12.15C9.27843 12.15 9.5455 12.2607 9.74241 12.4576C9.93933 12.6545 10.05 12.9216 10.05 13.2ZM12.5 6.55005C12.2215 6.55005 11.9544 6.66067 11.7575 6.85759C11.5606 7.0545 11.45 7.32157 11.45 7.60005V24.4C11.45 24.6785 11.5606 24.9456 11.7575 25.1425C11.9544 25.3394 12.2215 25.4501 12.5 25.4501C12.7784 25.4501 13.0455 25.3394 13.2424 25.1425C13.4393 24.9456 13.55 24.6785 13.55 24.4V7.60005C13.55 7.32157 13.4393 7.0545 13.2424 6.85759C13.0455 6.66067 12.7784 6.55005 12.5 6.55005ZM16 9.35005C15.7215 9.35005 15.4544 9.46067 15.2575 9.65759C15.0606 9.8545 14.95 10.1216 14.95 10.4V21.6C14.95 21.8785 15.0606 22.1456 15.2575 22.3425C15.4544 22.5394 15.7215 22.65 16 22.65C16.2784 22.65 16.5455 22.5394 16.7424 22.3425C16.9393 22.1456 17.05 21.8785 17.05 21.6V10.4C17.05 10.1216 16.9393 9.8545 16.7424 9.65759C16.5455 9.46067 16.2784 9.35005 16 9.35005ZM19.5 12.15C19.2215 12.15 18.9544 12.2607 18.7575 12.4576C18.5606 12.6545 18.45 12.9216 18.45 13.2V18.8C18.45 19.0785 18.5606 19.3456 18.7575 19.5425C18.9544 19.7394 19.2215 19.85 19.5 19.85C19.7784 19.85 20.0455 19.7394 20.2424 19.5425C20.4393 19.3456 20.55 19.0785 20.55 18.8V13.2C20.55 12.9216 20.4393 12.6545 20.2424 12.4576C20.0455 12.2607 19.7784 12.15 19.5 12.15ZM23 10.75C22.7215 10.75 22.4544 10.8607 22.2575 11.0576C22.0606 11.2545 21.95 11.5216 21.95 11.8V20.2C21.95 20.4785 22.0606 20.7456 22.2575 20.9425C22.4544 21.1394 22.7215 21.25 23 21.25C23.2784 21.25 23.5455 21.1394 23.7424 20.9425C23.9393 20.7456 24.05 20.4785 24.05 20.2V11.8C24.05 11.5216 23.9393 11.2545 23.7424 11.0576C23.5455 10.8607 23.2784 10.75 23 10.75Z" fill="white"/>
</svg>
