<svg width="20" height="20" viewBox="0 0 20 20" fill="none" xmlns="http://www.w3.org/2000/svg">
<g clip-path="url(#clip0_5768_48170)">
<path fill-rule="evenodd" clip-rule="evenodd" d="M6.32133 2.15478C6.63389 1.84222 7.05781 1.66663 7.49984 1.66663H16.6665C17.1085 1.66663 17.5325 1.84222 17.845 2.15478C18.1576 2.46734 18.3332 2.89127 18.3332 3.33329V12.5C18.3332 12.942 18.1576 13.3659 17.845 13.6785C17.5325 13.991 17.1085 14.1666 16.6665 14.1666H14.9998V12.5H16.6665V3.33329H7.49984V4.99996H5.83317V3.33329C5.83317 2.89127 6.00877 2.46734 6.32133 2.15478ZM2.15466 6.32145C2.46722 6.00889 2.89114 5.83329 3.33317 5.83329H12.4998C12.9419 5.83329 13.3658 6.00889 13.6783 6.32145C13.9909 6.63401 14.1665 7.05793 14.1665 7.49996V16.6666C14.1665 17.1087 13.9909 17.5326 13.6783 17.8451C13.3658 18.1577 12.9419 18.3333 12.4998 18.3333H3.33317C2.89114 18.3333 2.46722 18.1577 2.15466 17.8451C1.8421 17.5326 1.6665 17.1087 1.6665 16.6666V7.49996C1.6665 7.05793 1.8421 6.63401 2.15466 6.32145ZM5.52891 8.1H3.7998V15.9H5.15566V10.5299H5.22803L7.38369 15.8771H8.39678L10.5524 10.5413H10.6248V15.9H11.9807V8.1H10.2516L7.93594 13.752H7.84453L5.52891 8.1Z" fill="currentColor"/>
</g>
<defs>
<clipPath id="clip0_5768_48170">
<rect width="20" height="20" fill="white"/>
</clipPath>
</defs>
</svg>
