<svg width="20" height="20" viewBox="0 0 20 20" fill="none" xmlns="http://www.w3.org/2000/svg">
<g clip-path="url(#clip0_5768_48160)">
<path fill-rule="evenodd" clip-rule="evenodd" d="M6.32133 2.15478C6.63389 1.84222 7.05781 1.66663 7.49984 1.66663H16.6665C17.1085 1.66663 17.5325 1.84222 17.845 2.15478C18.1576 2.46734 18.3332 2.89127 18.3332 3.33329V12.5C18.3332 12.942 18.1576 13.3659 17.845 13.6785C17.5325 13.991 17.1085 14.1666 16.6665 14.1666H14.9998V12.5H16.6665V3.33329H7.49984V4.99996H5.83317V3.33329C5.83317 2.89127 6.00877 2.46734 6.32133 2.15478ZM2.15466 6.32145C2.46722 6.00889 2.89114 5.83329 3.33317 5.83329H12.4998C12.9419 5.83329 13.3658 6.00889 13.6783 6.32145C13.9909 6.63401 14.1665 7.05793 14.1665 7.49996V16.6666C14.1665 17.1087 13.9909 17.5326 13.6783 17.8451C13.3658 18.1577 12.9419 18.3333 12.4998 18.3333H3.33317C2.89114 18.3333 2.46722 18.1577 2.15466 17.8451C1.8421 17.5326 1.6665 17.1087 1.6665 16.6666V7.49996C1.6665 7.05793 1.8421 6.63401 2.15466 6.32145ZM4.99982 8.30005V16.4582H6.47768V13.4706H7.98151L9.58477 16.4582H11.2339L9.46938 13.2284C9.52247 13.207 9.57421 13.1841 9.6246 13.1599C10.0548 12.9501 10.3801 12.654 10.6005 12.2715C10.8236 11.8865 10.9352 11.4324 10.9352 10.9092C10.9352 10.3887 10.8249 9.93326 10.6045 9.54288C10.3868 9.14985 10.0641 8.84445 9.63655 8.62669C9.21165 8.40893 8.68583 8.30005 8.05911 8.30005H4.99982ZM6.47768 12.2437H7.84002C8.20649 12.2437 8.50658 12.1932 8.74028 12.0923C8.97397 11.9887 9.14659 11.8387 9.25812 11.6422C9.37232 11.443 9.42941 11.1987 9.42941 10.9092C9.42941 10.6197 9.37232 10.3728 9.25812 10.1683C9.14393 9.96115 8.96999 9.80446 8.73629 9.69824C8.5026 9.58936 8.20118 9.53492 7.83205 9.53492H6.47768V12.2437Z" fill="currentColor"/>
</g>
<defs>
<clipPath id="clip0_5768_48160">
<rect width="20" height="20" fill="white"/>
</clipPath>
</defs>
</svg>
