<svg width="24" height="24" viewBox="0 0 24 24" fill="none" xmlns="http://www.w3.org/2000/svg">
<path d="M7.5 22.5L16.5 22.5C17.0967 22.5 17.669 22.2629 18.091 21.841C18.5129 21.419 18.75 20.8467 18.75 20.25L18.75 3.75C18.75 3.15326 18.5129 2.58097 18.091 2.15901C17.669 1.73705 17.0967 1.5 16.5 1.5L7.5 1.5C6.90326 1.5 6.33097 1.73705 5.90901 2.15901C5.48705 2.58097 5.25 3.15326 5.25 3.75L5.25 20.25C5.25 20.8467 5.48705 21.419 5.90901 21.841C6.33097 22.2629 6.90326 22.5 7.5 22.5ZM12 17.25C12.2225 17.25 12.44 17.316 12.625 17.4396C12.81 17.5632 12.9542 17.7389 13.0394 17.9445C13.1245 18.15 13.1468 18.3762 13.1034 18.5945C13.06 18.8127 12.9528 19.0132 12.7955 19.1705C12.6382 19.3278 12.4377 19.435 12.2195 19.4784C12.0012 19.5218 11.775 19.4995 11.5695 19.4144C11.3639 19.3292 11.1882 19.185 11.0646 19C10.941 18.815 10.875 18.5975 10.875 18.375C10.875 18.0766 10.9935 17.7905 11.2045 17.5795C11.4155 17.3685 11.7016 17.25 12 17.25Z" fill="#427BBF"/>
</svg>
