<svg width="19" height="19" viewBox="0 0 19 19" fill="none" xmlns="http://www.w3.org/2000/svg">
<path d="M18.3103 4.87845L14.1216 0.688759C13.9823 0.549435 13.8169 0.438915 13.6349 0.363512C13.4529 0.288108 13.2578 0.249298 13.0608 0.249298C12.8638 0.249298 12.6687 0.288108 12.4867 0.363512C12.3047 0.438915 12.1393 0.549435 12 0.688759L0.439695 12.25C0.299801 12.3888 0.188889 12.554 0.113407 12.736C0.0379245 12.9181 -0.000621974 13.1133 7.58902e-06 13.3103V17.5C7.58902e-06 17.8978 0.158043 18.2794 0.439347 18.5607C0.720652 18.842 1.10218 19 1.50001 19H5.6897C5.88675 19.0006 6.08197 18.9621 6.26399 18.8866C6.44602 18.8111 6.61122 18.7002 6.75001 18.5603L18.3103 7.00001C18.4496 6.86072 18.5602 6.69534 18.6356 6.51333C18.711 6.33132 18.7498 6.13624 18.7498 5.93923C18.7498 5.74222 18.711 5.54713 18.6356 5.36512C18.5602 5.18311 18.4496 5.01774 18.3103 4.87845ZM5.6897 17.5H1.50001V13.3103L9.75001 5.06032L13.9397 9.25001L5.6897 17.5ZM15 8.18876L10.8103 4.00001L13.0603 1.75001L17.25 5.93876L15 8.18876Z" fill="currentColor"/>
</svg>
