<svg width="32" height="32" viewBox="0 0 32 32" fill="none" xmlns="http://www.w3.org/2000/svg">
<rect width="32" height="32" rx="6" fill="#2FA960"/>
<path d="M23.6999 8.30005H8.2999C7.9286 8.30005 7.5725 8.44755 7.30995 8.7101C7.0474 8.97265 6.8999 9.32875 6.8999 9.70005V22.3C6.8999 22.6714 7.0474 23.0274 7.30995 23.29C7.5725 23.5526 7.9286 23.7 8.2999 23.7H23.6999C24.0712 23.7 24.4273 23.5526 24.6899 23.29C24.9524 23.0274 25.0999 22.6714 25.0999 22.3V9.70005C25.0999 9.32875 24.9524 8.97265 24.6899 8.7101C24.4273 8.44755 24.0712 8.30005 23.6999 8.30005ZM18.4499 12.5C18.6576 12.5 18.8606 12.5616 19.0333 12.677C19.2059 12.7924 19.3405 12.9564 19.42 13.1482C19.4994 13.3401 19.5202 13.5512 19.4797 13.7549C19.4392 13.9586 19.3392 14.1457 19.1924 14.2925C19.0455 14.4394 18.8584 14.5394 18.6547 14.5799C18.4511 14.6204 18.2399 14.5996 18.0481 14.5201C17.8562 14.4407 17.6922 14.3061 17.5769 14.1334C17.4615 13.9607 17.3999 13.7577 17.3999 13.55C17.3999 13.2716 17.5105 13.0045 17.7074 12.8076C17.9044 12.6107 18.1714 12.5 18.4499 12.5ZM8.2999 22.3V19.85L12.8499 15.3L19.8499 22.3H8.2999ZM23.6999 22.3H21.83L18.68 19.15L20.43 17.4L23.6999 20.6708V22.3Z" fill="white"/>
</svg>
