<svg width="23" height="23" viewBox="0 0 23 23" fill="none" xmlns="http://www.w3.org/2000/svg">
<path d="M21.5 11.125V20.75C21.5 21.2141 21.3156 21.6592 20.9874 21.9874C20.6592 22.3156 20.2141 22.5 19.75 22.5H2.25C1.78587 22.5 1.34075 22.3156 1.01256 21.9874C0.684374 21.6592 0.5 21.2141 0.5 20.75V3.24996C0.5 2.78583 0.684374 2.34071 1.01256 2.01252C1.34075 1.68433 1.78587 1.49996 2.25 1.49996H11.875C12.1071 1.49996 12.3296 1.59214 12.4937 1.75624C12.6578 1.92033 12.75 2.14289 12.75 2.37496C12.75 2.60702 12.6578 2.82958 12.4937 2.99367C12.3296 3.15777 12.1071 3.24996 11.875 3.24996H2.25V20.75H19.75V11.125C19.75 10.8929 19.8422 10.6703 20.0063 10.5062C20.1704 10.3421 20.3929 10.25 20.625 10.25C20.8571 10.25 21.0796 10.3421 21.2437 10.5062C21.4078 10.6703 21.5 10.8929 21.5 11.125ZM22.1191 5.61902L11.6191 16.119C11.5377 16.2002 11.4412 16.2647 11.335 16.3086C11.2288 16.3525 11.1149 16.375 11 16.375H7.5C7.26794 16.375 7.04538 16.2828 6.88128 16.1187C6.71719 15.9546 6.625 15.732 6.625 15.5V12C6.62491 11.885 6.64747 11.7712 6.69138 11.665C6.7353 11.5587 6.79971 11.4622 6.88094 11.3809L17.3809 0.880893C17.4622 0.799539 17.5587 0.735 17.6649 0.690966C17.7711 0.646932 17.885 0.624268 18 0.624268C18.115 0.624268 18.2288 0.646932 18.3351 0.690966C18.4413 0.735 18.5378 0.799539 18.6191 0.880893L22.1191 4.38089C22.2004 4.46216 22.265 4.55866 22.309 4.66488C22.353 4.77111 22.3757 4.88497 22.3757 4.99996C22.3757 5.11494 22.353 5.22881 22.309 5.33503C22.265 5.44125 22.2004 5.53776 22.1191 5.61902ZM20.2597 4.99996L18 2.73699L16.612 4.12496L18.875 6.38793L20.2597 4.99996Z" fill="#427BBF"/>
</svg>
