<svg width="24" height="24" viewBox="0 0 24 24" fill="none" xmlns="http://www.w3.org/2000/svg">
<g id="PaperPlaneRight">
<path id="Vector" d="M21.7499 11.9897C21.7506 12.257 21.6798 12.5196 21.545 12.7503C21.4102 12.9811 21.2162 13.1716 20.983 13.3022L5.24144 22.3032C5.01527 22.4314 4.75987 22.4992 4.49988 22.5C4.26011 22.4995 4.02395 22.4416 3.8112 22.331C3.59845 22.2204 3.4153 22.0605 3.27711 21.8645C3.13892 21.6686 3.04972 21.4424 3.01698 21.2049C2.98424 20.9673 3.00892 20.7254 3.08894 20.4994L5.653 13.0041C5.67827 12.9299 5.72612 12.8656 5.78985 12.82C5.85357 12.7744 5.92997 12.75 6.00831 12.75H12.7499C12.8527 12.7503 12.9545 12.7293 13.0488 12.6886C13.1432 12.6478 13.2282 12.5881 13.2986 12.5131C13.3689 12.4381 13.4231 12.3495 13.4577 12.2526C13.4923 12.1558 13.5067 12.0529 13.4999 11.9503C13.4829 11.7575 13.3936 11.5782 13.25 11.4483C13.1064 11.3185 12.9191 11.2476 12.7255 11.25H6.01488C5.93665 11.2502 5.86034 11.2258 5.79662 11.1805C5.73291 11.1351 5.68499 11.0709 5.65956 10.9969L3.08706 3.49691C2.98688 3.20952 2.9765 2.89846 3.05728 2.60502C3.13807 2.31159 3.3062 2.04967 3.53936 1.85405C3.77251 1.65844 4.05966 1.53837 4.36267 1.5098C4.66567 1.48123 4.9702 1.54551 5.23581 1.6941L20.9858 10.6838C21.2175 10.8142 21.4103 11.0039 21.5446 11.2334C21.6788 11.4628 21.7497 11.7239 21.7499 11.9897Z" fill="white"/>
</g>
</svg>
