<svg xmlns="http://www.w3.org/2000/svg" width="20" height="19" viewBox="0 0 20 19" fill="none">
  <path d="M18.8113 4.87844L14.6216 0.68969C14.4823 0.550366 14.3169 0.439846 14.1349 0.364442C13.9529 0.289039 13.7578 0.250229 13.5608 0.250229C13.3638 0.250229 13.1687 0.289039 12.9867 0.364442C12.8047 0.439846 12.6393 0.550366 12.5 0.68969L0.939695 12.25C0.799801 12.3888 0.688889 12.554 0.613407 12.736C0.537925 12.918 0.499378 13.1133 0.500008 13.3103V17.5C0.500008 17.8978 0.658043 18.2794 0.939347 18.5607C1.22065 18.842 1.60218 19 2.00001 19H17.75C17.9489 19 18.1397 18.921 18.2803 18.7803C18.421 18.6397 18.5 18.4489 18.5 18.25C18.5 18.0511 18.421 17.8603 18.2803 17.7197C18.1397 17.579 17.9489 17.5 17.75 17.5H8.31126L18.8113 7C18.9506 6.86071 19.0611 6.69534 19.1365 6.51332C19.2119 6.33131 19.2507 6.13623 19.2507 5.93922C19.2507 5.74221 19.2119 5.54713 19.1365 5.36512C19.0611 5.18311 18.9506 5.01773 18.8113 4.87844ZM6.1897 17.5H2.00001V13.3103L10.25 5.06031L14.4397 9.25L6.1897 17.5ZM15.5 8.18969L11.3113 4L13.5613 1.75L17.75 5.93969L15.5 8.18969Z" fill="#427BBF"/>
</svg>