<svg width="19" height="26" viewBox="0 0 19 26" fill="none" xmlns="http://www.w3.org/2000/svg">
<path d="M4.25 13V6C4.25 4.60761 4.80312 3.27226 5.78769 2.28769C6.77226 1.30312 8.10761 0.75 9.5 0.75C10.8924 0.75 12.2277 1.30312 13.2123 2.28769C14.1969 3.27226 14.75 4.60761 14.75 6V13C14.75 14.3924 14.1969 15.7277 13.2123 16.7123C12.2277 17.6969 10.8924 18.25 9.5 18.25C8.10761 18.25 6.77226 17.6969 5.78769 16.7123C4.80312 15.7277 4.25 14.3924 4.25 13ZM18.25 13C18.25 12.7679 18.1578 12.5454 17.9937 12.3813C17.8296 12.2172 17.6071 12.125 17.375 12.125C17.1429 12.125 16.9204 12.2172 16.7563 12.3813C16.5922 12.5454 16.5 12.7679 16.5 13C16.5 14.8565 15.7625 16.637 14.4497 17.9497C13.137 19.2625 11.3565 20 9.5 20C7.64348 20 5.86301 19.2625 4.55025 17.9497C3.2375 16.637 2.5 14.8565 2.5 13C2.5 12.7679 2.40781 12.5454 2.24372 12.3813C2.07962 12.2172 1.85706 12.125 1.625 12.125C1.39294 12.125 1.17038 12.2172 1.00628 12.3813C0.842187 12.5454 0.75 12.7679 0.75 13C0.752665 15.1684 1.55929 17.2588 3.01389 18.8669C4.46849 20.4751 6.46773 21.4867 8.625 21.7063V24.375C8.625 24.6071 8.71719 24.8296 8.88128 24.9937C9.04538 25.1578 9.26794 25.25 9.5 25.25C9.73206 25.25 9.95462 25.1578 10.1187 24.9937C10.2828 24.8296 10.375 24.6071 10.375 24.375V21.7063C12.5323 21.4867 14.5315 20.4751 15.9861 18.8669C17.4407 17.2588 18.2473 15.1684 18.25 13Z" fill="#427BBF"/>
</svg>
