<svg width="25" height="24" viewBox="0 0 25 24" fill="none" xmlns="http://www.w3.org/2000/svg">
<g id="WarningOctagon">
<path id="Vector" d="M21.8103 7.52156L16.9784 2.68969C16.6963 2.40924 16.315 2.25126 15.9172 2.25H9.08281C8.685 2.25126 8.30371 2.40924 8.02156 2.68969L3.18969 7.52156C2.90924 7.80371 2.75126 8.185 2.75 8.58281V15.4172C2.75126 15.815 2.90924 16.1963 3.18969 16.4784L8.02156 21.3103C8.30371 21.5908 8.685 21.7487 9.08281 21.75H15.9172C16.315 21.7487 16.6963 21.5908 16.9784 21.3103L21.8103 16.4784C22.0908 16.1963 22.2487 15.815 22.25 15.4172V8.58281C22.2487 8.185 22.0908 7.80371 21.8103 7.52156ZM11.75 7.5C11.75 7.30109 11.829 7.11032 11.9697 6.96967C12.1103 6.82902 12.3011 6.75 12.5 6.75C12.6989 6.75 12.8897 6.82902 13.0303 6.96967C13.171 7.11032 13.25 7.30109 13.25 7.5V12.75C13.25 12.9489 13.171 13.1397 13.0303 13.2803C12.8897 13.421 12.6989 13.5 12.5 13.5C12.3011 13.5 12.1103 13.421 11.9697 13.2803C11.829 13.1397 11.75 12.9489 11.75 12.75V7.5ZM12.5 17.25C12.2775 17.25 12.06 17.184 11.875 17.0604C11.69 16.9368 11.5458 16.7611 11.4606 16.5555C11.3755 16.35 11.3532 16.1238 11.3966 15.9055C11.44 15.6873 11.5472 15.4868 11.7045 15.3295C11.8618 15.1722 12.0623 15.065 12.2805 15.0216C12.4988 14.9782 12.725 15.0005 12.9305 15.0856C13.1361 15.1708 13.3118 15.315 13.4354 15.5C13.559 15.685 13.625 15.9025 13.625 16.125C13.625 16.4234 13.5065 16.7095 13.2955 16.9205C13.0845 17.1315 12.7984 17.25 12.5 17.25Z" fill="#BB3217"/>
</g>
</svg>
